{
  "title": "Backmask 2015.HDRip.XviD.AC3-FANTA",
  "uid": 12216049,
  "size": 1447572708,
  "categoryP": "video",
  "categoryS": "movies",
  "magnet": "?xt=urn:btih:14259f093d722648cd3abc6af58a72ac1a4c2c47&amp;dn=Backmask+2015.HDRip.XviD.AC3-FANTA&amp;tr=udp%3A%2F%2Ftracker.openbittorrent.com%3A80&amp;tr=udp%3A%2F%2Fopen.demonii.com%3A1337&amp;tr=udp%3A%2F%2Ftracker.coppersurfer.tk%3A6969&amp;tr=udp%3A%2F%2Fexodus.desync.com%3A6969",
  "seeders": 48,
  "leechers": 13,
  "uploader": "xxxlavalxxx",
  "files": 3,
  "time": 1439232713,
  "description": " &lt;a href=&quot;http://extraimago.com/image/q28&quot; rel=&quot;nofollow&quot; target=&quot;_NEW&quot;&gt;http://extraimago.com/image/q28&lt;/a&gt;\n &lt;a href=&quot;\nhttp://www.imdb.com/title/tt1945044/&quot; rel=&quot;nofollow&quot; target=&quot;_NEW&quot;&gt;\nhttp://www.imdb.com/title/tt1945044/&lt;/a&gt;\n\n\nA group of teenagers accidentally release an evil spirit that starts to possess them one by one.\n\nDirector: Marcus Nispel\nWriters: Kirsten McCallion (as Kirsten Elms) , Kirsten McCallion\nStars: Stephen Lang, Brittany Curran, Gage Golightly \nGenres: Horror | Thriller\nCountry: USA\nLanguage: English\n\n[b]Backmask a.k.a. Exeter a.k.a. The Asylum[/b]\n\nBackmask 2015.HDRip.XviD.AC3-FANTA\n\n\nFormat                                   : AVI\nFormat/Info                              : Audio Video Interleave\nFormat profile                           : OpenDML\nFormat settings                          : rec\nFile size                                : 1.33 GiB\nDuration                                 : 1h 31mn\nOverall bit rate                         : 2 081 Kbps\nWriting application                      : AVI-Mux GUI 1.17.8.3, Feb 16 201019:42:50\n\nVideo\nID                                       : 0\nFormat                                   : MPEG-4 Visual\nFormat profile                           : Advanced Simple@L5\nFormat settings, BVOP                    : 2\nFormat settings, QPel                    : No\nFormat settings, GMC                     : No warppoints\nFormat settings, Matrix                  : Custom\nCodec ID                                 : XVID\nCodec ID/Hint                            : XviD\nDuration                                 : 1h 31mn\nBit rate                                 : 1 885 Kbps\nWidth                                    : 720 pixels\nHeight                                   : 400 pixels\nDisplay aspect ratio                     : 16:9\nFrame rate                               : 23.976 fps\nColor space                              : YUV\nChroma subsampling                       : 4:2:0\nBit depth                                : 8 bits\nScan type                                : Progressive\nCompression mode                         : Lossy\nBits/(Pixel*Frame)                       : 0.273\nStream size                              : 1.21 GiB (91%)\nWriting library                          : XviD 1.2.1 (UTC 2008-12-04)\n\nAudio\nID                                       : 1\nFormat                                   : AC-3\nFormat/Info                              : Audio Coding 3\nMode extension                           : CM (complete main)\nFormat settings, Endianness              : Big\nCodec ID                                 : 2000\nDuration                                 : 1h 31mn\nBit rate mode                            : Constant\nBit rate                                 : 192 Kbps\nChannel(s)                               : 2 channels\nChannel positions                        : Front: L R\nSampling rate                            : 48.0 KHz\nBit depth                                : 16 bits\nCompression mode                         : Lossy\nStream size                              : 125 MiB (9%)\nAlignment                                : Aligned on interleaves\nInterleave, duration                     : 64 ms (1.54 video frames)\nInterleave, preload duration             : 192 ms\nTitle                                    : Backmask 2015\n\n &lt;a href=&quot;\nhttp://extraimago.com/image/qwV&quot; rel=&quot;nofollow&quot; target=&quot;_NEW&quot;&gt;\nhttp://extraimago.com/image/qwV&lt;/a&gt; &lt;a href=&quot;\nhttp://extraimago.com/image/qwu&quot; rel=&quot;nofollow&quot; target=&quot;_NEW&quot;&gt;\nhttp://extraimago.com/image/qwu&lt;/a&gt; &lt;a href=&quot;\nhttp://extraimago.com/image/qwv&quot; rel=&quot;nofollow&quot; target=&quot;_NEW&quot;&gt;\nhttp://extraimago.com/image/qwv&lt;/a&gt; &lt;a href=&quot;\nhttp://extraimago.com/image/qwA&quot; rel=&quot;nofollow&quot; target=&quot;_NEW&quot;&gt;\nhttp://extraimago.com/image/qwA&lt;/a&gt; &lt;a href=&quot;\nhttp://extraimago.com/image/qwW&quot; rel=&quot;nofollow&quot; target=&quot;_NEW&quot;&gt;\nhttp://extraimago.com/image/qwW&lt;/a&gt; &lt;a href=&quot;\nhttp://extraimago.com/image/qwf&quot; rel=&quot;nofollow&quot; target=&quot;_NEW&quot;&gt;\nhttp://extraimago.com/image/qwf&lt;/a&gt;",
  "parsed": {
    "xt": "urn:btih:14259f093d722648cd3abc6af58a72ac1a4c2c47",
    "dn": "Backmask 2015.HDRip.XviD.AC3-FANTA",
    "tr": [
      "udp://exodus.desync.com:6969",
      "udp://open.demonii.com:1337",
      "udp://tracker.coppersurfer.tk:6969",
      "udp://tracker.openbittorrent.com:80"
    ],
    "infoHash": "14259f093d722648cd3abc6af58a72ac1a4c2c47",
    "infoHashBuffer": {
      "type": "Buffer",
      "data": [
        20,
        37,
        159,
        9,
        61,
        114,
        38,
        72,
        205,
        58,
        188,
        106,
        245,
        138,
        114,
        172,
        26,
        76,
        44,
        71
      ]
    },
    "name": "Backmask 2015.HDRip.XviD.AC3-FANTA",
    "announce": [
      "udp://exodus.desync.com:6969",
      "udp://open.demonii.com:1337",
      "udp://tracker.coppersurfer.tk:6969",
      "udp://tracker.openbittorrent.com:80"
    ],
    "urlList": []
  },
  "previous": 15,
  "peers": 5,
  "last_updated": "2016-12-26T17:01:11.221Z"
}